# xmcd
#
# Track frame offsets:
#	150
#	4325
#	27991
#	37136
#	44221
#	55647
#	95335
#	116851
#	154587
#	171999
#	177884
#	219088
#
# Disc length: 3454 seconds
#
# Revision: 0
# Processed by: cddbd v1.5.2PL0 Copyright (c) Steve Scherf et al.
# Submitted via: dBpowerAMP V4.0
#
DISCID=a10d7c0c
DTITLE=J.K Ihalainen - Ei kenenk‰‰n maalla
DYEAR=2005
DGENRE=Cult
TTITLE0=El‰m‰‰ mets‰ss‰
TTITLE1=Meill‰ meni siis lujaa
TTITLE2=T‰rkeyden j‰rjestys
TTITLE3=Mysteerio junassa
TTITLE4=Tuhlattu maa
TTITLE5=Ei kenenk‰‰n maalla
TTITLE6=Palapeli
TTITLE7=Mets‰n peitto
TTITLE8=El‰inkausi
TTITLE9=Karawe
TTITLE10=Hyvinvointimantra I (aka Gallup)
TTITLE11=bonus track
EXTD=
EXTT0=
EXTT1=
EXTT2=
EXTT3=
EXTT4=
EXTT5=
EXTT6=
EXTT7=
EXTT8=
EXTT9=
EXTT10=
EXTT11=
PLAYORDER=
